<?xml version="1.0" encoding="UTF-8" standalone="no"?>
<!-- Created with Inkscape (http://www.inkscape.org/) -->

<svg
   width="94.956329mm"
   height="113.05083mm"
   viewBox="0 0 94.956329 113.05083"
   version="1.1"
   id="svg5"
   inkscape:export-filename="LOGO ESCUELA"
   inkscape:export-xdpi="96"
   inkscape:export-ydpi="96"
   xml:space="preserve"
   inkscape:version="1.2 (dc2aedaf03, 2022-05-15)"
   sodipodi:docname="escudo trazo blanco.svg"
   xmlns:inkscape="http://www.inkscape.org/namespaces/inkscape"
   xmlns:sodipodi="http://sodipodi.sourceforge.net/DTD/sodipodi-0.dtd"
   xmlns="http://www.w3.org/2000/svg"
   xmlns:svg="http://www.w3.org/2000/svg"><sodipodi:namedview
     id="namedview7"
     pagecolor="#ffffff"
     bordercolor="#000000"
     borderopacity="0.25"
     inkscape:showpageshadow="2"
     inkscape:pageopacity="0.0"
     inkscape:pagecheckerboard="0"
     inkscape:deskcolor="#d1d1d1"
     inkscape:document-units="mm"
     showgrid="false"
     inkscape:zoom="1.5215769"
     inkscape:cx="49.290969"
     inkscape:cy="180.07634"
     inkscape:window-width="1920"
     inkscape:window-height="1009"
     inkscape:window-x="1072"
     inkscape:window-y="433"
     inkscape:window-maximized="1"
     inkscape:current-layer="layer1" /><defs
     id="defs2" /><g
     inkscape:label="Capa 1"
     inkscape:groupmode="layer"
     id="layer1"
     transform="matrix(0.68739846,0,0,0.68739846,-22.259374,-49.878253)"
     style="display:inline"
     inkscape:export-filename=".\layer1.png"
     inkscape:export-xdpi="96"
     inkscape:export-ydpi="96"><g
       id="g9382"
       transform="matrix(0.72467039,0,0,0.72794664,28.613348,56.873552)"
       style="display:inline;stroke-width:8.13195;stroke-dasharray:none"
       inkscape:export-filename="escudo blanco.png"
       inkscape:export-xdpi="96"
       inkscape:export-ydpi="96"><path
         style="display:inline;fill:#ffffff;fill-opacity:0;stroke:#ffffff;stroke-width:8.13195;stroke-linejoin:round;stroke-dasharray:none;stroke-opacity:1"
         d="m 100.5829,243.27327 c 19.78249,-24.78282 24.04197,-19.24149 56.59655,-32.01991 32.5546,-12.77845 34.68434,-35.29284 34.68434,-35.29284 V 25.357433 H 9.6189249 V 175.39527 c 0,0 3.9658751,21.80082 40.1302271,37.32713 23.457172,10.07078 28.160139,6.13083 50.833748,30.55087 z"
         id="path9396"
         sodipodi:nodetypes="csccccsc"
         inkscape:label="path9396"
         inkscape:export-filename="escudo fondo blanco.png"
         inkscape:export-xdpi="96"
         inkscape:export-ydpi="96"
         sodipodi:insensitive="true" /><path
         style="display:none;fill:none;stroke:#ffffff;stroke-width:8.13195;stroke-dasharray:none;stroke-opacity:1"
         d="M 155.97717,184.84251 117.37413,85.378806 63.990632,85.552694 21.214286,185.01639 H 181.19086 l -40.75117,-99.626132 -23.16772,-0.01657"
         id="path63"
         sodipodi:nodetypes="ccccccc" /><path
         style="display:none;fill:none;stroke:#ffffff;stroke-width:8.13195;stroke-dasharray:none;stroke-opacity:1"
         d="M 76.663747,85.516658 92.279298,38.239655 h 12.172752 l 15.36963,47.215525"
         id="path1053"
         sodipodi:nodetypes="cccc" /><path
         style="display:none;fill:none;stroke:#ffffff;stroke-width:8.13195;stroke-dasharray:none;stroke-opacity:1"
         d="m 104.4667,38.239897 6.51705,0.01537 18.44061,47.036593"
         id="path1055"
         sodipodi:nodetypes="ccc" /><path
         style="display:inline;fill:#ffffff;fill-opacity:1;stroke-width:8.13200145;stroke-dasharray:none"
         d="m 85.451284,209.59165 c 0.45369,-0.84753 0.457343,-1.76305 0.01652,-3.77616 -0.32019,-1.4615 -0.50683,-4.00713 -0.414327,-5.65697 l 0.168455,-2.99966 3.065038,-0.95685 c 3.055096,-0.9537 3.070099,-0.96805 4.597186,-4.40755 0.842635,-1.89794 2.777655,-5.51971 4.299986,-8.04839 1.52244,-2.52869 3.591558,-6.32167 4.598128,-8.42894 2.02956,-4.24897 2.05583,-4.5823 1.32975,-16.85788 -0.32268,-5.45308 -0.18497,-7.80295 0.9434,-16.09157 1.57869,-11.59819 2.13533,-13.60651 5.67654,-20.48165 1.50177,-2.91567 3.80064,-8.66796 5.12928,-12.83485 2.05118,-6.43274 2.90466,-8.30772 5.76243,-12.659586 4.32949,-6.592863 8.2185,-11.474203 10.66811,-13.390156 1.07228,-0.838682 4.59321,-3.267847 7.82429,-5.398073 5.15386,-3.397973 6.59523,-4.696584 11.74625,-10.58277 3.56481,-4.073577 6.97657,-7.431587 8.68439,-8.547432 1.547,-1.010861 2.89867,-1.905646 3.0036,-1.988391 0.10502,-0.08259 -0.29074,-1.074859 -0.88009,-2.204875 l -1.07089,-2.054498 3.46756,-3.516029 c 2.23975,-2.271123 4.17929,-3.749407 5.47768,-4.175149 1.10559,-0.362487 2.4699,-0.946463 3.03187,-1.297757 2.28984,-1.431419 4.29353,-1.422446 6.38718,0.02898 1.08996,0.755346 2.18689,1.246617 2.43765,1.09163 0.25093,-0.155057 1.04935,-1.153836 1.77471,-2.219777 1.29211,-1.898723 1.305,-2.003685 0.63474,-5.17532 -1.22028,-5.773921 -3.12676,-6.423239 -8.59281,-2.926587 -1.58601,1.01456 -3.63371,1.989097 -4.55051,2.165772 -0.9168,0.176713 -2.5543,1.113357 -3.63898,2.081582 -2.08089,1.857492 -6.60457,4.201903 -8.12404,4.210361 -0.49539,0.0036 -1.34901,-0.274975 -1.89669,-0.616893 -0.82452,-0.514667 -1.4162,-0.419318 -3.44126,0.558118 -1.34498,0.648915 -3.66853,2.135589 -5.16337,3.303811 -1.49483,1.168189 -6.09241,4.424288 -10.21687,7.235747 -6.63964,4.525905 -7.64741,5.404144 -8.79368,7.662687 -1.08596,2.139719 -1.76301,2.7755 -4.2009,3.944377 -2.03406,0.975202 -3.28724,1.99693 -4.17567,3.404297 -1.59765,2.530826 -2.78246,3.357169 -6.66684,4.649834 -1.70777,0.568362 -4.70719,1.977019 -6.66545,3.130514 -2.50596,1.476132 -4.41981,2.202356 -6.46213,2.451965 -2.436736,0.298196 -3.263878,0.688589 -5.162425,2.43863 -2.808359,2.588598 -3.701519,3.070387 -7.006913,3.779251 -1.574827,0.338048 -3.312096,1.160464 -4.321098,2.046387 -1.244836,1.092975 -2.205689,1.479904 -3.663369,1.475263 -1.687478,-0.0028 -2.142175,-0.262959 -3.114476,-1.764218 -0.771314,-1.190878 -1.792333,-1.953757 -3.165491,-2.365098 -1.863351,-0.55814 -2.003527,-0.724654 -1.736181,-2.061208 0.187061,-0.934244 -0.02496,-1.933523 -0.588289,-2.795972 -0.876603,-1.337845 -0.871833,-1.349652 1.522383,-3.780345 1.761614,-1.788561 2.926352,-2.522287 4.370509,-2.753163 1.589397,-0.25425 2.391354,-0.838219 4.161979,-3.030998 2.262407,-2.801777 12.021963,-11.166767 14.82927,-12.710205 1.116971,-0.614032 2.218991,-0.78558 3.723121,-0.579201 1.93115,0.265034 2.16769,0.176708 2.46009,-0.915678 0.17799,-0.664737 0.32683,-3.066527 0.33056,-5.337373 l 0.008,-4.128722 2.80889,0.233084 c 2.83701,0.235155 4.5941,-0.450092 4.17972,-1.630335 -0.10853,-0.308981 0.45855,-1.316988 1.26005,-2.239889 1.81273,-2.087217 1.84335,-3.46643 0.11288,-5.070543 -3.16522,-2.933395 -5.01565,-2.838121 -8.43085,0.433817 -2.32974,2.232181 -3.00781,2.610139 -4.528795,2.524333 -1.407353,-0.07965 -2.260276,0.302758 -3.999787,1.791579 -1.21604,1.04089 -2.756295,2.756297 -3.42272,3.812071 -0.812922,1.287683 -2.671275,2.80109 -5.645611,4.597695 -2.438643,1.473019 -5.913243,3.812037 -7.721394,5.197931 -1.80813,1.385843 -4.019285,2.862255 -4.91369,3.280959 -3.632137,1.700164 -4.807958,2.477247 -7.35239,4.859045 -2.523383,2.362125 -5.35248,3.938585 -8.424312,4.694228 -0.758578,0.186636 -2.801132,1.659612 -4.539019,3.273344 -1.737924,1.613676 -4.105642,3.393767 -5.261717,3.955665 -1.171208,0.569582 -2.644108,1.862752 -3.32641,2.92112 -0.673468,1.044696 -1.401062,1.790313 -1.616815,1.656962 -0.216084,-0.133632 -1.006678,-1.850258 -1.757581,-3.815106 -0.750819,-1.964904 -1.552198,-3.572564 -1.780891,-3.572564 -0.228527,0 -0.889138,-0.802547 -1.46792,-1.783386 -0.578615,-0.980784 -1.788646,-2.231214 -2.688859,-2.778641 -0.90017,-0.547216 -1.932482,-1.69893 -2.294099,-2.558828 -0.592511,-1.409316 -0.880181,-1.56356 -2.91664,-1.56356 -4.645685,0 -9.499407,2.860642 -11.951363,7.043705 -1.079216,1.841172 -1.249512,2.668454 -1.067353,5.186155 0.267925,3.701779 1.522996,5.486413 6.96612,9.903815 6.557552,5.32182 6.328281,4.927011 5.971554,10.284265 -0.168802,2.540067 -0.791173,6.594077 -1.382358,9.008807 -0.678777,2.77237 -0.939655,4.92947 -0.707893,5.85286 0.448883,1.78915 8.924899,10.57698 11.788449,12.22241 1.123844,0.64568 3.192779,1.41449 4.597573,1.70834 3.990093,0.83456 15.457077,1.17025 18.901326,0.55328 1.685791,-0.30152 5.133985,-0.70194 7.662672,-0.88876 l 4.59761,-0.33967 0.156709,-2.1711 c 0.133954,-1.84924 0.323495,-2.16993 1.277097,-2.16328 0.616015,0.003 1.349874,0.17672 1.630868,0.38321 0.291568,0.21402 0.561735,3.66639 0.629852,8.03805 0.06588,4.21447 0.261691,9.61665 0.43622,12.00476 0.266277,3.64526 0.143131,4.85822 -0.770356,7.55696 -1.030307,3.04508 -1.045078,3.34012 -0.280775,5.59181 0.474257,1.39641 0.688017,3.12608 0.518316,4.19257 -0.172491,1.08623 -0.0129,2.32836 0.400217,3.09252 0.580415,1.07683 0.57559,1.50405 -0.02898,2.72453 -0.545439,1.09888 -0.589478,1.81715 -0.182951,2.9832 0.424164,1.21589 0.35669,1.87203 -0.32476,3.15019 -0.678773,1.27453 -0.876696,3.17367 -0.940263,9.02162 -0.0701,6.41736 -0.2667,8.04384 -1.475846,12.1704 -0.767456,2.61966 -1.316549,4.82713 -1.220285,4.90535 0.09671,0.0784 0.582233,0.35999 1.079191,0.62674 0.8384,0.44951 0.79014,0.71237 -0.665194,3.6247 -1.409731,2.82111 -1.886266,3.29865 -4.689231,4.6994 -2.158638,1.07866 -3.864597,1.55907 -5.536166,1.55907 -2.776525,0 -4.950557,1.34329 -4.418403,2.73008 0.280795,0.73105 1.287173,0.84585 7.413973,0.84585 3.899184,0 9.16808,0.14768 11.708714,0.32763 4.396877,0.31191 4.648183,0.27375 5.218046,-0.7908 z"
         id="path179" /></g></g></svg>
