<?xml version="1.0" encoding="UTF-8" standalone="no"?>
<!-- Created with Inkscape (http://www.inkscape.org/) -->

<svg
   width="210mm"
   height="297mm"
   viewBox="0 0 210 297"
   version="1.1"
   id="svg5"
   inkscape:export-filename="LOGO ESCUELA"
   inkscape:export-xdpi="96"
   inkscape:export-ydpi="96"
   xml:space="preserve"
   inkscape:version="1.2 (dc2aedaf03, 2022-05-15)"
   sodipodi:docname="logo remake 2.svg"
   xmlns:inkscape="http://www.inkscape.org/namespaces/inkscape"
   xmlns:sodipodi="http://sodipodi.sourceforge.net/DTD/sodipodi-0.dtd"
   xmlns:xlink="http://www.w3.org/1999/xlink"
   xmlns="http://www.w3.org/2000/svg"
   xmlns:svg="http://www.w3.org/2000/svg"><sodipodi:namedview
     id="namedview7"
     pagecolor="#ffffff"
     bordercolor="#000000"
     borderopacity="0.25"
     inkscape:showpageshadow="2"
     inkscape:pageopacity="0.0"
     inkscape:pagecheckerboard="0"
     inkscape:deskcolor="#d1d1d1"
     inkscape:document-units="mm"
     showgrid="false"
     inkscape:zoom="0.76078845"
     inkscape:cx="28.260156"
     inkscape:cy="410.10086"
     inkscape:window-width="1920"
     inkscape:window-height="1009"
     inkscape:window-x="1072"
     inkscape:window-y="433"
     inkscape:window-maximized="1"
     inkscape:current-layer="g9382" /><defs
     id="defs2"><rect
       x="152.42807"
       y="908.99177"
       width="535.35712"
       height="91.085065"
       id="rect15615" /><rect
       x="0"
       y="11.153273"
       width="784.44689"
       height="96.661702"
       id="rect15595" /><rect
       x="55.766366"
       y="18.588789"
       width="839.28382"
       height="119.89769"
       id="rect14628" /></defs><g
     inkscape:label="Capa 1"
     inkscape:groupmode="layer"
     id="layer1"
     transform="matrix(0.68739846,0,0,0.68739846,36.809647,32.388728)"
     style="display:inline"
     sodipodi:insensitive="true"><circle
       style="display:inline;fill:#000000;fill-opacity:1;stroke:#000000;stroke-width:0;stroke-linejoin:round;stroke-dasharray:none;stroke-opacity:1"
       id="circle15622"
       cx="-164.35948"
       cy="-96.62191"
       r="114.84301"
       transform="matrix(-0.02904439,-0.99957812,-0.99957812,0.02904439,0,0)" /><circle
       style="display:inline;fill:#000000;fill-opacity:1;stroke:#000000;stroke-width:0;stroke-linejoin:round;stroke-dasharray:none;stroke-opacity:1"
       id="path15568"
       cx="146.94293"
       cy="-102.34437"
       r="114.84301"
       transform="rotate(90.384921)" /><circle
       style="display:inline;fill:#ffffff;fill-opacity:1;stroke:#000000;stroke-width:6.75602;stroke-linejoin:round;stroke-dasharray:none;stroke-opacity:1"
       id="path15568-0"
       cx="101.02898"
       cy="147.59169"
       r="133.33505" /><g
       id="g11722"
       style="fill:#0f2f7a;fill-opacity:1"
       transform="matrix(0.78330913,0,0,0.78330913,25.017562,27.236512)"><path
         id="path11573"
         style="fill:#0f2f7a;fill-opacity:1;stroke:#000000;stroke-width:0;stroke-linejoin:round;stroke-dasharray:none;stroke-opacity:1"
         d="M 104.13643,297.23787 A 143.77876,143.77876 0 0 0 241.21685,153.73584 143.77876,143.77876 0 0 0 104.13643,10.126307 Z" /><path
         id="path11717"
         style="fill:#748e81;fill-opacity:1;stroke:#000000;stroke-width:0;stroke-linejoin:round;stroke-dasharray:none;stroke-opacity:1"
         d="M 90.755705,10.23381 A 143.77876,143.77876 0 0 0 -46.340508,153.73584 143.77876,143.77876 0 0 0 90.755705,297.23862 Z" /></g><g
       id="g9382"
       transform="matrix(0.71315448,0,0,0.71315448,29.73374,58.468391)"
       style="display:inline"><path
         style="display:inline;fill:#ffffff;stroke:#000000;stroke-width:4;stroke-linejoin:round;stroke-dasharray:none;stroke-opacity:1"
         d="m 102.04927,232.79371 c 15.98954,-20.03114 19.43234,-15.55226 45.74515,-25.88065 26.31282,-10.3284 28.03422,-28.52605 28.03422,-28.52605 V 56.659425 H 28.526046 V 177.93014 c 0,0 3.205488,17.62089 32.435956,30.1703 18.959669,8.13988 22.760925,4.95535 41.087268,24.69327 z"
         id="path9396"
         sodipodi:nodetypes="csccccsc"
         transform="matrix(1.2802224,0,0,1.2802224,-30.245722,-50.215404)" /><path
         style="fill:none;stroke:#000000;stroke-width:5.12089;stroke-dasharray:none;stroke-opacity:1"
         d="M 155.97717,184.84251 117.37413,85.378806 63.990632,85.552694 21.214286,185.01639 H 181.19086 l -40.75117,-99.626132 -23.16772,-0.01657"
         id="path63"
         sodipodi:nodetypes="ccccccc" /><path
         style="fill:none;stroke:#000000;stroke-width:5.12089;stroke-dasharray:none;stroke-opacity:1"
         d="M 76.663747,85.516658 92.279298,38.239655 h 12.172752 l 15.36963,47.215525"
         id="path1053"
         sodipodi:nodetypes="cccc" /><path
         style="fill:none;stroke:#000000;stroke-width:5.12089;stroke-dasharray:none;stroke-opacity:1"
         d="m 104.4667,38.239897 6.51705,0.01537 18.44061,47.036593"
         id="path1055"
         sodipodi:nodetypes="ccc" /><path
         style="display:inline;fill:#000000;stroke-width:0.364312"
         d="m 91.171596,210.66569 c 0.323551,-0.60442 0.326156,-1.25733 0.01178,-2.69299 -0.228345,-1.04227 -0.361448,-2.8577 -0.295479,-4.03429 l 0.120134,-2.13922 2.185846,-0.68238 c 2.178755,-0.68014 2.189455,-0.69037 3.278504,-3.14327 0.600929,-1.35352 1.980897,-3.9364 3.066554,-5.73974 1.085735,-1.80335 2.561335,-4.50833 3.279175,-6.01114 1.44739,-3.03017 1.46613,-3.26789 0.94832,-12.02227 -0.23012,-3.88889 -0.13191,-5.56471 0.67279,-11.47578 1.12585,-8.2713 1.52282,-9.70354 4.04825,-14.60658 1.07099,-2.07932 2.71044,-6.18159 3.65797,-9.15323 1.46281,-4.58754 2.07147,-5.92469 4.1095,-9.02824 3.0876,-4.70173 5.86106,-8.18288 7.60801,-9.54925 0.7647,-0.59811 3.27567,-2.33048 5.57993,-3.84966 3.6755,-2.42328 4.70342,-3.34939 8.37689,-7.54715 2.54226,-2.90509 4.97537,-5.29987 6.19331,-6.09564 1.10325,-0.7209 2.0672,-1.35902 2.14203,-1.41803 0.0749,-0.0589 -0.20734,-0.76654 -0.62764,-1.572416 l -0.76371,-1.465175 2.47291,-2.507472 c 1.59729,-1.619661 2.98048,-2.673906 3.90643,-2.977526 0.78846,-0.258509 1.76142,-0.674974 2.16219,-0.925501 1.63301,-1.020823 3.06195,-1.014424 4.55505,0.02067 0.77731,0.538678 1.55959,0.88903 1.73842,0.778501 0.17895,-0.11058 0.74835,-0.822864 1.26564,-1.583044 0.92148,-1.354083 0.93067,-1.428937 0.45267,-3.690803 -0.87025,-4.117698 -2.22986,-4.580762 -6.128,-2.087109 -1.13107,0.723538 -2.5914,1.418534 -3.24522,1.54453 -0.65382,0.126024 -1.82161,0.793996 -2.59515,1.48449 -1.484,1.324679 -4.71008,2.996606 -5.7937,3.002638 -0.35329,0.0026 -0.96205,-0.1961 -1.35263,-0.43994 -0.58801,-0.367037 -1.00997,-0.299039 -2.45415,0.398024 -0.95918,0.462777 -2.61623,1.523005 -3.68228,2.356128 -1.06605,0.833099 -4.34483,3.155201 -7.28621,5.160205 -4.73509,3.22767 -5.45378,3.85399 -6.27125,5.46468 -0.77446,1.52595 -1.2573,1.97936 -2.99589,2.81295 -1.4506,0.69547 -2.34431,1.42412 -2.9779,2.42779 -1.13937,1.80487 -1.98432,2.39418 -4.75449,3.31605 -1.2179,0.40533 -3.35695,1.40992 -4.75349,2.23254 -1.78714,1.05271 -3.15201,1.57062 -4.6085,1.74863 -1.73777,0.21266 -2.32765,0.49107 -3.681607,1.73912 -2.002794,1.84607 -2.639755,2.18966 -4.997012,2.69519 -1.123095,0.24108 -2.362036,0.82759 -3.08161,1.45939 -0.887761,0.77946 -1.572997,1.0554 -2.612548,1.05209 -1.203433,-0.002 -1.527702,-0.18753 -2.221103,-1.25816 -0.550066,-0.84928 -1.27821,-1.39333 -2.257484,-1.68668 -1.328857,-0.39804 -1.428824,-0.51679 -1.238165,-1.46996 0.133403,-0.66626 -0.0178,-1.3789 -0.419541,-1.99396 -0.625154,-0.95409 -0.621752,-0.96251 1.085694,-2.69597 1.256303,-1.27552 2.086941,-1.79878 3.116848,-1.96343 1.133486,-0.18132 1.705405,-0.59778 2.968134,-2.16157 1.613446,-1.9981 8.573517,-7.96363 10.575561,-9.06434 0.796573,-0.4379 1.582483,-0.56024 2.655163,-0.41306 1.37721,0.18901 1.5459,0.12602 1.75442,-0.65302 0.12694,-0.47406 0.23308,-2.186907 0.23574,-3.806371 l 0.006,-2.944417 2.00317,0.166225 c 2.02323,0.167702 3.27631,-0.320985 2.98079,-1.162681 -0.0774,-0.220351 0.32702,-0.939216 0.89861,-1.597387 1.29276,-1.488508 1.31459,-2.4721 0.0805,-3.61608 -2.25729,-2.091964 -3.57693,-2.024019 -6.0125,0.309378 -1.66146,1.59189 -2.14503,1.861433 -3.22973,1.80024 -1.00366,-0.0568 -1.611926,0.215913 -2.852466,1.277672 -0.867224,0.742316 -1.965664,1.965666 -2.440928,2.718596 -0.579739,0.918317 -1.905032,1.99761 -4.026193,3.278867 -1.739129,1.05049 -4.217056,2.718571 -5.506547,3.706928 -1.289476,0.98832 -2.866371,2.04123 -3.50422,2.33983 -2.590275,1.21248 -3.428817,1.76666 -5.24339,3.46525 -1.799562,1.68456 -3.817145,2.80882 -6.007836,3.34771 -0.540983,0.1331 -1.99764,1.18356 -3.237022,2.3344 -1.239408,1.1508 -2.927957,2.42028 -3.752417,2.821 -0.835252,0.4062 -1.885657,1.32843 -2.372244,2.08321 -0.480287,0.74503 -0.999174,1.27677 -1.153039,1.18167 -0.154101,-0.0953 -0.717917,-1.31952 -1.253427,-2.72076 -0.53545,-1.40128 -1.106957,-2.54779 -1.27005,-2.54779 -0.162975,0 -0.634093,-0.57234 -1.046854,-1.27183 -0.412642,-0.69945 -1.275581,-1.5912 -1.917572,-1.9816 -0.64196,-0.39025 -1.378158,-1.2116 -1.636047,-1.82484 -0.422552,-1.00506 -0.627705,-1.11506 -2.080015,-1.11506 -3.313091,0 -6.774545,2.04008 -8.523168,5.02325 -0.769648,1.31304 -0.891095,1.90302 -0.761188,3.69853 0.191072,2.63994 1.086132,3.91266 4.96792,7.06295 4.676548,3.79528 4.513042,3.51372 4.258641,7.33427 -0.120382,1.81146 -0.564229,4.70259 -0.985835,6.42467 -0.484073,1.97713 -0.670119,3.51547 -0.504837,4.17399 0.320123,1.27594 6.364832,7.54302 8.406985,8.71647 0.801475,0.46047 2.276945,1.00875 3.27878,1.21831 2.845553,0.59517 11.023284,0.83457 13.479566,0.39457 1.202229,-0.21503 3.661324,-0.50059 5.464669,-0.63382 l 3.278806,-0.24224 0.111758,-1.54833 c 0.09553,-1.31879 0.230702,-1.54749 0.910767,-1.54275 0.439314,0.002 0.962669,0.12603 1.163061,0.27329 0.207933,0.15263 0.400604,2.6147 0.449182,5.73237 0.04698,3.00557 0.186626,6.85816 0.311092,8.56125 0.189897,2.59963 0.102075,3.46466 -0.549383,5.38928 -0.734768,2.17161 -0.745302,2.38202 -0.200236,3.98782 0.338219,0.99586 0.490663,2.22938 0.36964,2.98995 -0.123013,0.77465 -0.0092,1.66048 0.285416,2.20545 0.413926,0.76794 0.410485,1.07262 -0.02067,1.94301 -0.388982,0.78367 -0.420389,1.29591 -0.130472,2.12748 0.302494,0.86712 0.254375,1.33505 -0.231604,2.24657 -0.48407,0.90894 -0.62522,2.26332 -0.670553,6.43381 -0.04999,4.57657 -0.190198,5.7365 -1.052506,8.67938 -0.547315,1.86822 -0.938903,3.44249 -0.870252,3.49827 0.06897,0.0559 0.415222,0.25673 0.76963,0.44696 0.597909,0.32057 0.563492,0.50803 -0.474386,2.58497 -1.005356,2.01189 -1.345199,2.35245 -3.344146,3.3514 -1.539443,0.76925 -2.756055,1.11186 -3.948142,1.11186 -1.980091,0 -3.530512,0.95797 -3.151004,1.94697 0.20025,0.52135 0.917953,0.60322 5.287308,0.60322 2.780721,0 6.538258,0.10532 8.350122,0.23365 3.135653,0.22244 3.314873,0.19523 3.721273,-0.56396 z"
         id="path179"
         transform="matrix(1.4022207,0,0,1.4022207,-41.693264,-81.98559)" /></g><text
       xml:space="preserve"
       id="text15593"
       style="font-style:normal;font-variant:normal;font-weight:bold;font-stretch:normal;font-size:17.449px;font-family:Arial;-inkscape-font-specification:'Arial, Bold';font-variant-ligatures:normal;font-variant-caps:normal;font-variant-numeric:normal;font-variant-east-asian:normal;text-align:center;text-anchor:middle;white-space:pre;fill:#ffffff;fill-opacity:1;stroke:#000000;stroke-width:0;stroke-linejoin:round;stroke-dasharray:none;stroke-opacity:1"><textPath
         xlink:href="#path15568"
         startOffset="50%"
         id="textPath15610"
         style="font-style:normal;font-variant:normal;font-weight:900;font-stretch:normal;font-size:17.449px;font-family:Arial;-inkscape-font-specification:'Arial, Heavy';font-variant-ligatures:normal;font-variant-caps:normal;font-variant-numeric:normal;font-variant-east-asian:normal;fill:#000000;stroke-width:0;stroke-dasharray:none">ESCUELA RIVERENSE DE TAEKWONDO Y HAPKIDO</textPath></text><text
       xml:space="preserve"
       id="text15613"
       style="font-style:normal;font-variant:normal;font-weight:bold;font-stretch:normal;font-size:17.449px;font-family:Arial;-inkscape-font-specification:'Arial, Bold';font-variant-ligatures:normal;font-variant-caps:normal;font-variant-numeric:normal;font-variant-east-asian:normal;text-align:center;text-anchor:middle;white-space:pre;fill:#000000;fill-opacity:1;stroke:#000000;stroke-width:0;stroke-linejoin:round;stroke-dasharray:none;stroke-opacity:1"><textPath
         xlink:href="#circle15622"
         startOffset="50%"
         id="textPath15631"
         style="font-style:normal;font-variant:normal;font-weight:900;font-stretch:normal;font-size:17.449px;font-family:Arial;-inkscape-font-specification:'Arial, Heavy';font-variant-ligatures:normal;font-variant-caps:normal;font-variant-numeric:normal;font-variant-east-asian:normal">URUGUAY</textPath></text></g></svg>
